<svg width="15" height="15" viewBox="0 0 15 15" fill="none" xmlns="http://www.w3.org/2000/svg">
<path fill-rule="evenodd" clip-rule="evenodd" d="M13.2669 6.98166C13.2669 8.33564 12.8103 9.58538 12.0393 10.5917L14.635 13.129C15.0299 13.515 15.0299 14.141 14.635 14.527L14.4955 14.6633C14.1006 15.0494 13.4603 15.0494 13.0653 14.6633L10.4109 12.0685C9.45428 12.6647 8.31827 13.0102 7.09971 13.0102C3.69365 13.0102 0.932495 10.3111 0.932495 6.98166C0.932495 3.65219 3.69365 0.953125 7.09971 0.953125C10.5058 0.953125 13.2669 3.65219 13.2669 6.98166ZM7.12923 11.0732C9.45484 11.0732 11.3401 9.23032 11.3401 6.95703C11.3401 4.68375 9.45484 2.84089 7.12923 2.84089C4.80361 2.84089 2.91833 4.68375 2.91833 6.95703C2.91833 9.23032 4.80361 11.0732 7.12923 11.0732Z" fill="#AEB4C2"/>
</svg>
